<svg width="50" height="50" viewBox="0 0 50 50" fill="none" xmlns="http://www.w3.org/2000/svg">
<rect width="50" height="50" rx="5" fill="#9D174D"/>
<path d="M31.4567 36.938C31.4567 38.5192 30.188 39.788 28.6067 39.788C27.0254 39.788 25.7441 38.5192 25.7441 36.938C25.7441 35.3567 27.0316 34.0754 28.6067 34.0754C30.1942 34.0754 31.4567 35.3567 31.4567 36.938ZM15.5877 34.0754C14.0064 34.0754 12.7376 35.3629 12.7376 36.938C12.7376 38.513 14.0064 39.788 15.5877 39.788C17.169 39.788 18.4502 38.5192 18.4502 36.938C18.4502 35.3567 17.169 34.0754 15.5877 34.0754ZM33.8193 17.2001C14.9314 17.2001 10.1188 16.4001 5 11C7.15004 14.2313 8.33131 20.3064 28.3192 20.0127C49.1508 19.7002 36.4443 25.394 32.7442 31.8191C44.4132 21.4002 52.7071 17.2001 33.8193 17.2001Z" fill="white"/>
</svg>
